<?xml version="1.0" standalone="no"?>
<!DOCTYPE svg PUBLIC "-//W3C//DTD SVG 20010904//EN"
 "http://www.w3.org/TR/2001/REC-SVG-20010904/DTD/svg10.dtd">
<svg version="1.0" xmlns="http://www.w3.org/2000/svg"
 width="518.000000pt" height="481.000000pt" viewBox="0 0 518.000000 481.000000"
 preserveAspectRatio="xMidYMid meet">

<g transform="translate(0.000000,481.000000) scale(0.100000,-0.100000)"
fill="#000000" stroke="none">
<path d="M0 2405 l0 -2405 2590 0 2590 0 0 2405 0 2405 -2590 0 -2590 0 0
-2405z m3330 645 l0 -70 -207 -2 -208 -3 -3 -407 -2 -408 -70 0 -70 0 -2 408
-3 407 -332 3 -333 2 0 -95 0 -95 235 0 235 0 0 -315 0 -315 -397 0 -398 0
132 132 133 133 49 -49 c28 -27 48 -53 45 -58 -3 -4 63 -8 145 -8 l151 0 0
165 0 165 -240 0 -240 0 0 240 0 240 690 0 690 0 0 -70z m-605 -125 l25 -24 0
-371 0 -370 -75 0 -75 0 0 320 0 320 -115 0 -115 0 0 75 0 75 165 0 c163 0
166 0 190 -25z m605 -45 l0 -70 -125 0 -125 0 0 -325 0 -325 -75 0 -75 0 0
369 c0 357 1 369 21 395 l20 26 180 0 179 0 0 -70z m-1081 -414 c11 -16 8 -24
-28 -60 l-41 -40 -50 49 -50 49 42 43 41 42 37 -32 c20 -18 42 -41 49 -51z
m-129 -421 c10 -12 10 -18 0 -30 -12 -14 -15 -14 -31 1 -14 13 -16 20 -8 31
15 17 24 17 39 -2z m490 -80 c0 -8 -9 -15 -20 -15 -13 0 -20 -7 -20 -20 0 -13
7 -20 20 -20 17 0 20 -7 20 -45 0 -43 -1 -45 -30 -45 -16 0 -30 5 -30 10 0 6
7 10 15 10 22 0 18 37 -5 43 -16 4 -20 14 -20 44 0 47 5 53 42 53 18 0 28 -5
28 -15z m105 -8 c4 -13 5 -48 3 -78 l-3 -54 -40 0 -40 0 -3 63 c-3 73 7 92 49
92 22 0 30 -6 34 -23z m53 -50 c2 -51 6 -67 17 -67 8 0 15 -4 15 -10 0 -5 -13
-10 -30 -10 l-30 0 0 81 c0 60 3 80 13 77 7 -3 13 -29 15 -71z m82 3 c0 -40 4
-70 10 -70 6 0 10 30 10 70 0 56 3 70 15 70 12 0 15 -16 15 -80 l0 -80 -40 0
-40 0 0 80 c0 64 3 80 15 80 12 0 15 -14 15 -70z m136 58 c4 -6 2 -14 -4 -16
-8 -2 -12 -28 -12 -68 0 -50 -3 -64 -15 -64 -12 0 -15 14 -15 64 0 40 -4 66
-12 68 -19 7 1 28 27 28 13 0 27 -5 31 -12z m52 -71 c2 -64 0 -77 -13 -77 -12
0 -15 15 -15 81 0 60 3 80 13 77 8 -3 13 -31 15 -81z m97 3 l0 -75 -37 -3 -38
-3 0 74 c0 40 3 77 7 81 4 4 21 6 38 4 l30 -3 0 -75z m62 53 l11 -28 1 28 c1
17 7 27 16 27 12 0 15 -16 15 -80 0 -73 -2 -80 -20 -80 -14 0 -20 7 -21 23
l-2 22 -4 -22 c-2 -13 -11 -23 -19 -23 -11 0 -14 17 -14 80 0 59 3 80 13 80 7
0 18 -12 24 -27z m127 12 c4 -10 -1 -15 -14 -15 -27 0 -26 -36 0 -43 16 -4 20
-14 20 -46 0 -40 -1 -41 -35 -41 -38 0 -47 14 -15 23 11 3 20 12 20 20 0 8 -9
17 -20 20 -16 4 -20 14 -20 44 0 22 3 43 7 46 12 13 51 7 57 -8z m-1514 -5 c0
-5 -4 -10 -10 -10 -6 0 -10 -28 -10 -65 0 -37 -4 -65 -10 -65 -6 0 -10 28 -10
65 0 37 -4 65 -10 65 -5 0 -10 5 -10 10 0 6 14 10 30 10 17 0 30 -4 30 -10z
m105 -65 l0 -70 -37 -3 -38 -3 0 76 0 76 38 -3 37 -3 0 -70z m91 35 c-2 -22 1
-40 5 -40 5 0 9 -9 9 -19 0 -38 -11 -51 -46 -51 l-34 0 0 75 0 75 35 0 c34 0
34 0 31 -40z m63 -4 l-2 -41 -7 35 c-6 29 -7 23 -8 -30 0 -49 2 -58 8 -35 l8
30 1 -32 c1 -23 -4 -33 -14 -33 -12 0 -15 15 -15 73 0 59 3 74 15 74 11 0 15
-11 14 -41z m51 -21 c0 -51 3 -65 15 -65 8 0 15 -4 15 -10 0 -5 -12 -10 -27
-10 l-28 0 0 75 c0 54 3 75 12 75 9 0 13 -19 13 -65z m130 -11 l0 -75 -37 3
-38 3 -3 59 c-4 77 0 86 43 86 l35 0 0 -76z m98 4 l-3 -73 -31 -3 c-30 -3 -30
-2 -32 45 0 26 1 43 4 37 3 -7 14 -10 24 -7 24 6 28 53 5 53 -8 0 -15 -7 -15
-15 0 -8 -4 -15 -10 -15 -5 0 -10 11 -10 25 0 22 4 25 35 25 l36 0 -3 -72z
m86 55 c3 -10 8 -36 11 -58 4 -22 9 -48 12 -57 3 -12 -1 -18 -11 -18 -9 0 -16
5 -16 10 0 6 -7 10 -15 10 -8 0 -15 -4 -15 -10 0 -5 -6 -10 -14 -10 -11 0 -12
8 -6 38 4 20 11 54 14 75 7 39 31 51 40 20z"/>
<path d="M2662 1898 c4 -67 22 -65 26 2 2 40 0 50 -13 50 -13 0 -15 -10 -13
-52z"/>
<path d="M3090 1895 c0 -30 5 -55 10 -55 6 0 10 25 10 55 0 30 -4 55 -10 55
-5 0 -10 -25 -10 -55z"/>
<path d="M1854 1889 c-2 -49 1 -59 13 -55 8 3 17 6 19 6 2 0 4 25 4 55 0 46
-3 55 -17 55 -15 0 -18 -10 -19 -61z"/>
<path d="M1902 1920 c0 -14 2 -19 5 -12 2 6 2 18 0 25 -3 6 -5 1 -5 -13z"/>
<path d="M1956 1934 c-8 -20 1 -34 20 -34 8 0 14 10 14 25 0 28 -24 34 -34 9z"/>
<path d="M1963 1883 c-22 -8 -15 -43 7 -43 13 0 20 7 20 19 0 22 -9 30 -27 24z"/>
<path d="M2002 1860 c0 -14 2 -19 5 -12 2 6 2 18 0 25 -3 6 -5 1 -5 -13z"/>
<path d="M2200 1895 c0 -42 3 -55 15 -55 12 0 15 13 15 55 0 42 -3 55 -15 55
-12 0 -15 -13 -15 -55z"/>
<path d="M2299 1888 c-9 -42 -8 -48 12 -48 15 0 20 5 17 22 -2 17 -26 39 -29
26z"/>
<path d="M2411 1893 c-1 -12 -7 -24 -13 -26 -7 -3 -3 -6 10 -6 24 -1 25 3 12
34 -8 19 -9 19 -9 -2z"/>
</g>
</svg>
